<svg width="40" height="40" viewBox="0 0 40 40" fill="none" xmlns="http://www.w3.org/2000/svg">
<path d="M20 0C8.95432 4.10142e-05 4.10142e-05 8.95432 0 20C4.2143e-05 31.0457 8.95432 40 20 40C31.0457 40 40 31.0457 40 20C40 8.95432 31.0457 4.2143e-05 20 0ZM30.3601 8.98288C31.1726 8.95325 31.7878 9.68878 31.4581 11.0105L27.4954 29.6862C27.2188 31.0134 26.4163 31.3309 25.3054 30.718L19.268 26.2571C17.85 27.6358 16.5797 28.8706 16.3658 29.0799C16.0295 29.4085 15.7616 29.684 15.1576 29.684C14.3751 29.684 14.5082 29.3878 14.2383 28.6426L12.0173 21.8343L6.21298 20.022C4.92354 19.627 4.91416 18.7412 6.50254 18.1039L29.7751 9.12766C29.9744 9.0372 30.1726 8.98971 30.3601 8.98288ZM26.6686 12.9551C26.4936 12.9527 26.2558 13.0153 26.0109 13.1638L12.9286 21.4177L15.1327 28.1767L15.5692 23.5247L26.7715 13.4174C27.0788 13.1446 26.9603 12.9591 26.6686 12.9551Z" fill="white"/>
</svg>
